<?xml version="1.0" encoding="utf-8"?>
<!-- Generator: Adobe Illustrator 26.2.1, SVG Export Plug-In . SVG Version: 6.00 Build 0)  -->
<svg version="1.1" xmlns="http://www.w3.org/2000/svg" xmlns:xlink="http://www.w3.org/1999/xlink" x="0px" y="0px"
	 viewBox="0 0 640 640" style="enable-background:new 0 0 640 640;" xml:space="preserve">
<style type="text/css">
	.st0{fill:#FFFFFF;}
	.st1{fill:#172729;}
	.st2{fill:#2E939E;}
	.st3{fill:#BCE2E8;}
	.st4{fill:#24C5E3;}
	.st5{fill:#D3593D;}
	.st6{fill:#E28027;}
	.st7{fill:none;stroke:#172729;stroke-miterlimit:10;}
	.st8{fill:#00697A;}
	.st9{fill:#222222;}
	.st10{fill:#989898;}
	.st11{fill:#4B4B4B;}
	.st12{fill:#767676;}
</style>
<g id="Logos__x28_place_final_logo_here_x29_">
</g>
<g id="Brand_Book">
	<g>
		<g>
			<path class="st1" d="M120.91,595.85l16.4-3.23c0.52,12.4,3.49,20.41,11.88,20.41c6.07,0,8.65-4.13,8.65-9.82
				c0-9.04-4.65-14.08-11.5-20.02l-13.17-11.49c-7.49-6.46-12.14-13.69-12.14-25.32c0-16.53,10.33-25.83,26.99-25.83
				c19.63,0,25.19,13.17,26.22,28.42l-16.4,2.84c-0.39-9.82-1.81-17.18-10.2-17.18c-5.68,0-8.78,4.26-8.78,9.82
				c0,7.1,2.97,10.98,8.52,15.76l13.05,11.5c8.52,7.36,15.63,16.53,15.63,30.35c0,15.11-10.59,25.7-26.22,25.7
				C130.72,627.76,121.68,616.65,120.91,595.85z"/>
			<path class="st1" d="M187.29,521.71h18.99v45.98l20.79-45.98h18.21l-20.02,46.63l22.09,57.99h-18.99l-17.44-47.53l-4.65,7.88
				v39.65h-18.99V521.71z"/>
			<path class="st1" d="M252.78,593.53v-39.26c0-21.18,7.75-33.71,30.22-33.71c22.34,0,30.09,12.53,30.09,33.71v39.26
				c0,21.05-7.75,34.23-30.09,34.23C260.4,627.76,252.78,614.71,252.78,593.53z M293.72,598.05v-48.18
				c0-8.78-1.42-15.37-10.72-15.37c-9.3,0-10.85,6.59-10.85,15.37v48.18c0,8.65,1.42,15.63,10.85,15.63
				C292.3,613.68,293.72,606.7,293.72,598.05z"/>
			<path class="st1" d="M327.17,521.71h30.74c18.73,0,26.74,10.85,26.74,29.71c0,20.54-11.11,28.42-28.03,28.42h-10.46v46.5h-18.99
				V521.71z M353.52,566.4c10.46,0,13.17-4,13.17-15.11c0-11.24-1.42-16.14-13.17-16.14h-7.36v31.26H353.52z"/>
			<path class="st1" d="M393.56,593.53v-39.26c0-21.18,7.75-33.71,30.22-33.71c22.34,0,30.09,12.53,30.09,33.71v39.26
				c0,21.05-7.75,34.23-30.09,34.23C401.18,627.76,393.56,614.71,393.56,593.53z M434.5,598.05v-48.18
				c0-8.78-1.42-15.37-10.72-15.37c-9.3,0-10.85,6.59-10.85,15.37v48.18c0,8.65,1.42,15.63,10.85,15.63
				C433.08,613.68,434.5,606.7,434.5,598.05z"/>
			<path class="st1" d="M465.37,595.85l16.4-3.23c0.52,12.4,3.49,20.41,11.88,20.41c6.07,0,8.65-4.13,8.65-9.82
				c0-9.04-4.65-14.08-11.5-20.02l-13.17-11.49c-7.49-6.46-12.14-13.69-12.14-25.32c0-16.53,10.33-25.83,26.99-25.83
				c19.63,0,25.19,13.17,26.22,28.42l-16.4,2.84c-0.39-9.82-1.81-17.18-10.2-17.18c-5.68,0-8.78,4.26-8.78,9.82
				c0,7.1,2.97,10.98,8.52,15.76l13.05,11.5c8.52,7.36,15.63,16.53,15.63,30.35c0,15.11-10.59,25.7-26.22,25.7
				C475.19,627.76,466.14,616.65,465.37,595.85z"/>
		</g>
		<g>
			<path class="st1" d="M556.37,248.62c0,97.43-58.95,181.1-143.14,217.27c-28.6,12.3-60.12,19.11-93.23,19.11
				c-34.65,0-67.55-7.45-97.2-20.85C140.74,427.08,83.63,344.51,83.63,248.62C83.63,118.07,189.45,12.24,320,12.24
				C450.55,12.24,556.37,118.07,556.37,248.62z"/>
			<g>
				<path class="st3" d="M413.23,465.88c-28.6,12.3-60.12,19.11-93.23,19.11c-34.65,0-67.55-7.45-97.2-20.85l18.7-92.66
					l21.38-105.95l6.91-34.24h0.01l5.43-26.93l0.07-0.35l4.21-20.87l4.17-20.65h68.31l4.17,20.65l4.2,20.81l0.09,0.42l12.34,61.16
					l21.39,105.97L413.23,465.88z"/>
				<path class="st4" d="M317.85,253.32c-20.34,0-39.24,4.5-54.96,12.22l20.8-103.04h68.3l20.8,103.04
					C357.08,257.81,338.18,253.32,317.85,253.32z"/>
				<path class="st4" d="M413.23,465.88c-28.6,12.3-60.12,19.11-93.23,19.11c-34.65,0-67.55-7.45-97.2-20.85l18.7-92.66
					c18.11,16.12,45.58,26.4,76.34,26.4c30.74,0,58.21-10.28,76.33-26.39h0.01L413.23,465.88z"/>
				<path class="st3" d="M389.2,218.38v-20.5c0-9.65-31.95-17.47-71.35-17.47s-71.35,7.82-71.35,17.47v20.5
					c0,0,2.1-17.47,71.35-17.47C387.91,200.91,389.2,218.38,389.2,218.38z"/>
				<path class="st8" d="M275.24,204.36c-17.45,3.18-28.75,8.28-28.75,14.01c0,5.12,8.99,9.72,23.31,12.92L275.24,204.36z"/>
				<path class="st8" d="M360.45,204.36c17.45,3.18,28.75,8.28,28.75,14.01c0,5.12-8.99,9.72-23.31,12.92L360.45,204.36z"/>
				<circle class="st8" cx="317.84" cy="318.27" r="32.05"/>
				<path class="st2" d="M317.84,318.27l-19.35,25.55c-7.99-6.05-12.7-15.52-12.7-25.55c0-17.58,14.47-32.05,32.05-32.05
					c7.28,0,14.34,2.48,20.02,7.02L317.84,318.27z"/>
				<path class="st8" d="M351.86,145.92v16.57h-68.17v-16.57l30.43-20.78v-15.09c-2.65-1.33-4.47-4.08-4.47-7.26
					c0-4.49,3.64-8.13,8.13-8.13c4.49,0,8.13,3.64,8.13,8.13c0,3.17-1.82,5.92-4.47,7.26v15.1L351.86,145.92z"/>
				<path class="st2" d="M317.84,162.49l-34.16-0.01v-16.57l30.43-20.78v-15.09c-2.65-1.33-4.47-4.08-4.47-7.26
					c0-4.49,3.64-8.13,8.13-8.13c-2.43,2.7-3.66,5.41-3.66,8.13c0,2.71,1.22,5.42,3.66,8.13v11.72L317.84,162.49z"/>
			</g>
		</g>
	</g>
</g>
<g id="Guidelines">
</g>
</svg>
