<?xml version="1.0" standalone="no"?>
<!DOCTYPE svg PUBLIC "-//W3C//DTD SVG 20010904//EN"
 "http://www.w3.org/TR/2001/REC-SVG-20010904/DTD/svg10.dtd">
<svg version="1.0" xmlns="http://www.w3.org/2000/svg"
 width="891.000000pt" height="891.000000pt" viewBox="0 0 891.000000 891.000000"
 preserveAspectRatio="xMidYMid meet">
<metadata>
Created by potrace 1.14, written by Peter Selinger 2001-2017
</metadata>
<g transform="translate(0.000000,891.000000) scale(0.100000,-0.100000)"
fill="#000000" stroke="none">
<path d="M3785 8449 c-1265 -70 -2443 -752 -3130 -1814 -339 -523 -542 -1093
-621 -1745 -26 -205 -26 -677 -1 -880 97 -787 375 -1447 876 -2078 109 -137
444 -473 585 -585 612 -487 1293 -769 2086 -864 204 -24 659 -24 860 1 384 47
702 125 1025 253 1095 433 1935 1315 2315 2430 230 675 278 1383 139 2081 -16
85 -29 158 -27 162 2 5 190 126 418 270 435 273 477 305 532 406 78 144 77
341 -3 480 -61 108 -200 206 -327 233 -35 7 -256 11 -662 11 l-609 0 -76 100
c-636 840 -1574 1372 -2670 1514 -115 15 -462 37 -535 34 -19 0 -98 -4 -175
-9z m510 -289 c803 -68 1542 -372 2125 -875 122 -106 248 -231 366 -364 l94
-106 -725 -3 -726 -2 -27 26 c-81 79 -256 170 -398 210 -81 22 -316 30 -408
14 -157 -28 -309 -96 -426 -190 -75 -59 -75 -60 -141 -60 -353 -1 -775 -123
-1089 -314 -541 -331 -910 -870 -1021 -1496 -27 -150 -37 -450 -19 -598 17
-156 56 -331 100 -457 21 -60 73 -208 114 -328 l75 -217 -139 -153 c-158 -172
-203 -243 -222 -354 -22 -129 26 -249 139 -353 91 -83 81 -86 162 50 l72 120
-46 43 c-38 37 -45 49 -45 83 0 22 9 52 20 69 26 40 157 181 163 175 2 -3 169
-499 370 -1103 l366 -1098 -32 7 c-127 27 -402 132 -612 233 -385 186 -683
398 -996 711 -304 304 -518 599 -705 972 -484 967 -518 2101 -93 3108 189 447
438 813 798 1170 308 306 594 512 976 703 427 213 908 346 1375 380 108 8 445
6 555 -3z m325 -1637 c0 -5 -30 -72 -66 -150 l-67 -143 -41 8 c-23 4 -113 7
-201 7 -136 0 -173 -4 -245 -23 -323 -88 -576 -337 -676 -667 -25 -83 -28
-104 -28 -260 0 -157 2 -177 27 -258 15 -48 41 -117 57 -153 l30 -66 -502
-585 -502 -585 -44 123 c-24 68 -63 180 -87 249 -195 554 -113 1168 220 1665
322 481 855 794 1422 834 143 11 703 13 703 4z m1468 -994 l2 -996 -664 -442
c-693 -461 -733 -491 -799 -603 -72 -123 -103 -314 -74 -453 8 -38 159 -522
336 -1075 176 -552 318 -1007 313 -1011 -27 -26 -393 -118 -605 -153 -215 -36
-350 -46 -603 -46 -227 0 -348 8 -534 36 l-106 16 -421 1265 -422 1266 536
626 c295 344 537 627 538 629 2 2 36 -22 76 -53 475 -357 1131 -223 1425 292
229 402 124 932 -243 1224 -39 31 -77 59 -84 61 -9 3 19 71 86 211 l98 207
571 -2 571 -3 3 -996z m2405 975 c72 -37 107 -94 107 -176 0 -104 4 -100 -499
-438 -249 -168 -546 -368 -660 -446 -334 -228 -1059 -714 -1065 -714 -3 0 -6
403 -6 895 l0 895 1045 0 c945 0 1049 -2 1078 -16z m-4043 -564 c113 -38 180
-80 271 -170 70 -69 94 -101 128 -170 54 -111 74 -194 73 -305 0 -318 -208
-580 -522 -661 -48 -12 -93 -15 -180 -12 -185 7 -312 62 -445 193 -335 328
-242 884 180 1087 113 54 187 69 320 64 78 -3 129 -11 175 -26z m3202 -806
c52 -276 74 -713 49 -982 -33 -354 -105 -677 -222 -990 -337 -900 -986 -1617
-1851 -2043 -82 -40 -150 -71 -152 -68 -2 2 -154 456 -337 1009 l-334 1005 1
95 c1 129 26 195 103 268 34 32 317 223 711 480 360 235 957 628 1325 874 369
245 675 445 680 444 6 -2 18 -43 27 -92z"/>
<path d="M4170 5539 c-60 -27 -107 -74 -136 -134 -22 -46 -24 -62 -24 -217 l0
-168 168 0 c155 0 171 2 217 24 99 47 154 135 155 246 0 155 -114 270 -270
270 -44 0 -80 -7 -110 -21z"/>
</g>
</svg>
